<svg class="svg-icon" style="width: 1.25em; height: 1em;vertical-align: middle;fill: currentColor;overflow: hidden;" viewBox="0 0 1280 1024" version="1.1" xmlns="http://www.w3.org/2000/svg"><path d="M984.6528 473.4464l-178.176 272.6144c-11.264 17.4336-77.0048 113.4976-124.224 139.7888a137.3696 137.3696 0 0 1-140.0576 0L263.68 691.0464c-36.224-34.88-43.4688-87.7312-28.9792-141.1328l10.7264-33.8048 78.6304 53.6576s90.4192 63.3216 121.8176 80.4864c35.6864 21.1968 122.0864 63.8592 122.0864 63.8592a87.5008 87.5008 0 0 0-15.296 74.0608c3.0848 8.4864 8.1536 16.128 14.7584 22.272a63.872 63.872 0 0 0 32.9984 24.6784c51.7888 18.2528 125.0432-93.0944 125.0432-93.0944l237.4656-350.1568-351.5136-169.2928-200.1664 305.3312a25.216 25.216 0 0 1-30.0544 13.1456c-29.5168-13.4144-8.8448-43.7376-2.1504-53.6576L584.3072 178.56a59.6096 59.6096 0 0 1 48.0384-11.8016l346.3936 150.784c97.6768 42.9312 53.6576 85.0688 6.4384 155.904h-0.5248z" fill="#B3B3B3" /><path d="M971.8528 435.0464l-178.176 272.6144c-11.264 17.4336-77.0048 113.4976-124.224 139.7888a137.3696 137.3696 0 0 1-140.0576 0L250.88 652.6464c-36.224-34.88-43.4688-87.7312-28.9792-141.1328l10.7264-33.8048 78.6304 53.6576s90.4192 63.3216 121.8176 80.4864c35.6864 21.1968 122.0864 63.8592 122.0864 63.8592a87.5008 87.5008 0 0 0-15.296 74.0608c3.0848 8.4864 8.1536 16.128 14.7584 22.272a63.872 63.872 0 0 0 32.9984 24.6784c51.7888 18.2528 125.0432-93.0944 125.0432-93.0944l237.4656-350.1568-351.5136-169.2928-200.1664 305.3312a25.216 25.216 0 0 1-30.0544 13.1456c-29.5168-13.4144-8.8448-43.7376-2.1504-53.6576L571.5072 140.16a59.6096 59.6096 0 0 1 48.0384-11.8016l346.3936 150.784c97.6768 42.9312 53.6576 85.0688 6.4384 155.904h-0.5248z" fill="#E5E7E6" /><path d="M514.2016 536.4992a31.4624 31.4624 0 0 1-24.576-37.056 31.4496 31.4496 0 1 1 61.568 12.7616 31.232 31.232 0 0 1-36.8256 24.3328c-0.064 0-0.1152-0.0256-0.1664-0.0384z m31.8592-117.9264a31.4368 31.4368 0 1 1 61.5296 12.7104 31.2064 31.2064 0 0 1-36.8128 24.3328c-0.0768-0.0128-0.128-0.0384-0.2048-0.0384a31.4368 31.4368 0 0 1-24.512-37.0048z m54.8352-83.136a31.4368 31.4368 0 0 1 61.5296 12.6976 31.424 31.424 0 0 1-37.2224 24.2944v-0.0128a31.1936 31.1936 0 0 1-24.3328-36.8128l0.0256-0.1664zM793.28 449.1264l-82.0224-38.1312a28.3008 28.3008 0 0 1-13.6064-37.0048 27.8656 27.8656 0 0 1 37.0048-13.5936l82.7008 35.8912a27.8656 27.8656 0 0 1 13.6064 36.9792l-0.0128 0.0384v1.3312a28.3136 28.3136 0 0 1-37.2224 13.5936l-0.448 0.896zM733.76 536.9472l-80.2688-41.2416a27.8656 27.8656 0 0 1-12.0192-37.6832 28.0704 28.0704 0 0 1 37.1968-13.9264l1.1392 0.5504 80.256 40.7936a27.8784 27.8784 0 0 1 12.1344 37.504l-0.1024 0.1792a27.8528 27.8528 0 0 1-37.4912 12.1216l-0.192-0.0896-0.6528 1.792zM674.0096 625.4464l-79.1296-44.5824a27.8528 27.8528 0 0 1-11.2128-37.7728l0.064-0.1152v-1.1264a27.8528 27.8528 0 0 1 37.9008-11.136l80.4608 43.9168a27.84 27.84 0 0 1 10.9184 37.9008v1.3312a28.096 28.096 0 0 1-38.1184 10.9312l-0.8832 0.6528z" fill="#F4C258" /></svg>